<mxfile host="app.diagrams.net" agent="Mozilla/5.0 (Windows NT 10.0; Win64; x64) AppleWebKit/537.36 (KHTML, like Gecko) Chrome/131.0.0.0 Safari/537.36 Edg/131.0.0.0" version="26.0.5">
  <diagram name="Page-1" id="mjoIo9GVvfLrUa51Crd4">
    <mxGraphModel dx="2560" dy="944" grid="0" gridSize="10" guides="1" tooltips="1" connect="1" arrows="1" fold="1" page="1" pageScale="1" pageWidth="827" pageHeight="1169" math="0" shadow="0">
      <root>
        <mxCell id="0" />
        <mxCell id="1" parent="0" />
        <mxCell id="FVLfrgH4JOe6l1_wb_6b-6" value="" style="edgeStyle=orthogonalEdgeStyle;rounded=0;orthogonalLoop=1;jettySize=auto;html=1;entryX=0;entryY=0.5;entryDx=0;entryDy=0;" edge="1" parent="1" source="FVLfrgH4JOe6l1_wb_6b-1" target="FVLfrgH4JOe6l1_wb_6b-2">
          <mxGeometry relative="1" as="geometry">
            <Array as="points" />
          </mxGeometry>
        </mxCell>
        <mxCell id="FVLfrgH4JOe6l1_wb_6b-1" value="Start" style="ellipse;whiteSpace=wrap;html=1;fontStyle=1" vertex="1" parent="1">
          <mxGeometry x="-471" y="160" width="120" height="80" as="geometry" />
        </mxCell>
        <mxCell id="FVLfrgH4JOe6l1_wb_6b-148" style="edgeStyle=orthogonalEdgeStyle;rounded=0;orthogonalLoop=1;jettySize=auto;html=1;exitX=1;exitY=0.5;exitDx=0;exitDy=0;entryX=0;entryY=0.5;entryDx=0;entryDy=0;" edge="1" parent="1" source="FVLfrgH4JOe6l1_wb_6b-2" target="FVLfrgH4JOe6l1_wb_6b-15">
          <mxGeometry relative="1" as="geometry" />
        </mxCell>
        <mxCell id="FVLfrgH4JOe6l1_wb_6b-2" value="&lt;span&gt;Step 1&lt;/span&gt;&lt;div&gt;Asset Pack Preparation&lt;/div&gt;" style="whiteSpace=wrap;html=1;fontStyle=1" vertex="1" parent="1">
          <mxGeometry x="-43" y="160" width="190" height="70" as="geometry" />
        </mxCell>
        <mxCell id="FVLfrgH4JOe6l1_wb_6b-100" style="edgeStyle=orthogonalEdgeStyle;rounded=0;orthogonalLoop=1;jettySize=auto;html=1;exitX=1;exitY=0.5;exitDx=0;exitDy=0;entryX=1;entryY=0.5;entryDx=0;entryDy=0;" edge="1" parent="1" source="FVLfrgH4JOe6l1_wb_6b-15" target="FVLfrgH4JOe6l1_wb_6b-93">
          <mxGeometry relative="1" as="geometry">
            <Array as="points">
              <mxPoint x="1107" y="196" />
              <mxPoint x="1107" y="764" />
            </Array>
          </mxGeometry>
        </mxCell>
        <mxCell id="FVLfrgH4JOe6l1_wb_6b-15" value="&lt;span&gt;Step 2&lt;/span&gt;&lt;div&gt;Blockout Layout&lt;/div&gt;" style="whiteSpace=wrap;html=1;fontStyle=1" vertex="1" parent="1">
          <mxGeometry x="561" y="161" width="190" height="70" as="geometry" />
        </mxCell>
        <mxCell id="FVLfrgH4JOe6l1_wb_6b-18" value="Asset Pack Preparation (for each object)" style="swimlane;whiteSpace=wrap;html=1;fillColor=default;" vertex="1" parent="1">
          <mxGeometry x="-208" y="283" width="520" height="359" as="geometry" />
        </mxCell>
        <mxCell id="FVLfrgH4JOe6l1_wb_6b-36" value="" style="endArrow=none;dashed=1;html=1;rounded=0;exitX=0.5;exitY=1;exitDx=0;exitDy=0;" edge="1" parent="FVLfrgH4JOe6l1_wb_6b-18" source="FVLfrgH4JOe6l1_wb_6b-18">
          <mxGeometry width="50" height="50" relative="1" as="geometry">
            <mxPoint x="264.58" y="185" as="sourcePoint" />
            <mxPoint x="260" y="25" as="targetPoint" />
          </mxGeometry>
        </mxCell>
        <mxCell id="FVLfrgH4JOe6l1_wb_6b-37" value="&lt;p style=&quot;margin-top: 0px;&quot;&gt;&lt;span style=&quot;background-color: transparent; color: light-dark(rgb(0, 0, 0), rgb(255, 255, 255)); font-size: 12px; font-weight: normal;&quot;&gt;1. Import LOD0 in blender&lt;/span&gt;&lt;/p&gt;&lt;p style=&quot;margin-top: 0px;&quot;&gt;&lt;span style=&quot;background-color: transparent; color: light-dark(rgb(0, 0, 0), rgb(255, 255, 255)); font-size: 12px; font-weight: normal;&quot;&gt;2. Minimize tri number / rebuild mesh so that it is optimized&lt;/span&gt;&lt;/p&gt;&lt;p style=&quot;margin-top: 0px;&quot;&gt;&lt;span style=&quot;background-color: transparent; color: light-dark(rgb(0, 0, 0), rgb(255, 255, 255)); font-size: 12px; font-weight: normal;&quot;&gt;3. Set up correct materials (set up blender nodes with alpha to view it correctly)&lt;/span&gt;&lt;/p&gt;&lt;p style=&quot;margin-top: 0px;&quot;&gt;4. Join all meshes EXCEPT movable parts.&lt;/p&gt;&lt;p style=&quot;margin-top: 0px;&quot;&gt;&lt;span style=&quot;background-color: transparent; color: light-dark(rgb(0, 0, 0), rgb(255, 255, 255)); font-size: 12px; font-weight: normal;&quot;&gt;5. Export to Unity&lt;/span&gt;&lt;/p&gt;" style="text;html=1;whiteSpace=wrap;overflow=hidden;rounded=0;" vertex="1" parent="FVLfrgH4JOe6l1_wb_6b-18">
          <mxGeometry x="10" y="100" width="240" height="160" as="geometry" />
        </mxCell>
        <mxCell id="FVLfrgH4JOe6l1_wb_6b-38" value="&lt;p style=&quot;margin-top: 0px;&quot;&gt;6. Import optimized LOD0&lt;/p&gt;&lt;p style=&quot;margin-top: 0px;&quot;&gt;7. &lt;b&gt;If LOD0 is over 15k tris&lt;/b&gt;, create LOD1 with &lt;b style=&quot;background-color: rgb(102, 255, 255);&quot;&gt;AutoLOD&lt;/b&gt; tool.&lt;/p&gt;&lt;p style=&quot;margin-top: 0px;&quot;&gt;8. Set up LODs for all assets to use&lt;/p&gt;" style="text;html=1;whiteSpace=wrap;overflow=hidden;rounded=0;" vertex="1" parent="FVLfrgH4JOe6l1_wb_6b-18">
          <mxGeometry x="275" y="100" width="240" height="137" as="geometry" />
        </mxCell>
        <mxCell id="FVLfrgH4JOe6l1_wb_6b-26" value="" style="html=1;whiteSpace=wrap;shape=isoCube2;backgroundOutline=1;isoAngle=15;fillColor=#fff2cc;strokeColor=#d6b656;" vertex="1" parent="FVLfrgH4JOe6l1_wb_6b-18">
          <mxGeometry x="90" y="35" width="80" height="50" as="geometry" />
        </mxCell>
        <mxCell id="FVLfrgH4JOe6l1_wb_6b-27" value="Blender" style="text;html=1;align=center;verticalAlign=middle;resizable=0;points=[];autosize=1;strokeColor=none;fillColor=none;" vertex="1" parent="FVLfrgH4JOe6l1_wb_6b-18">
          <mxGeometry x="100" y="40" width="60" height="30" as="geometry" />
        </mxCell>
        <mxCell id="FVLfrgH4JOe6l1_wb_6b-29" value="" style="html=1;whiteSpace=wrap;shape=isoCube2;backgroundOutline=1;isoAngle=15;fillColor=#dae8fc;strokeColor=#6c8ebf;" vertex="1" parent="FVLfrgH4JOe6l1_wb_6b-18">
          <mxGeometry x="355" y="35" width="80" height="50" as="geometry" />
        </mxCell>
        <mxCell id="FVLfrgH4JOe6l1_wb_6b-30" value="Unity" style="text;html=1;align=center;verticalAlign=middle;resizable=0;points=[];autosize=1;strokeColor=none;fillColor=none;" vertex="1" parent="FVLfrgH4JOe6l1_wb_6b-18">
          <mxGeometry x="370" y="40" width="50" height="30" as="geometry" />
        </mxCell>
        <mxCell id="FVLfrgH4JOe6l1_wb_6b-150" value="" style="group" vertex="1" connectable="0" parent="FVLfrgH4JOe6l1_wb_6b-18">
          <mxGeometry x="221" y="40" width="73" height="37.5" as="geometry" />
        </mxCell>
        <mxCell id="FVLfrgH4JOe6l1_wb_6b-151" value="" style="shape=singleArrow;whiteSpace=wrap;html=1;arrowWidth=0.4;arrowSize=0.4;" vertex="1" parent="FVLfrgH4JOe6l1_wb_6b-150">
          <mxGeometry width="63" height="25" as="geometry" />
        </mxCell>
        <mxCell id="FVLfrgH4JOe6l1_wb_6b-152" value="" style="shape=singleArrow;whiteSpace=wrap;html=1;arrowWidth=0.4;arrowSize=0.4;rotation=-180;" vertex="1" parent="FVLfrgH4JOe6l1_wb_6b-150">
          <mxGeometry x="10" y="12.5" width="63" height="25" as="geometry" />
        </mxCell>
        <mxCell id="FVLfrgH4JOe6l1_wb_6b-167" value="0.5 x 20 objects =10H" style="ellipse;whiteSpace=wrap;html=1;aspect=fixed;strokeWidth=1;strokeColor=#000000;fillColor=#dae8fc;fontStyle=1" vertex="1" parent="FVLfrgH4JOe6l1_wb_6b-18">
          <mxGeometry x="363.5" y="266" width="76" height="76" as="geometry" />
        </mxCell>
        <mxCell id="FVLfrgH4JOe6l1_wb_6b-165" value="1 x 10 objects =10H" style="ellipse;whiteSpace=wrap;html=1;aspect=fixed;strokeWidth=1;strokeColor=#000000;fillColor=#ffe6cc;fontStyle=1" vertex="1" parent="FVLfrgH4JOe6l1_wb_6b-18">
          <mxGeometry x="94.5" y="266" width="71" height="71" as="geometry" />
        </mxCell>
        <mxCell id="FVLfrgH4JOe6l1_wb_6b-169" value="Import time 1H" style="ellipse;whiteSpace=wrap;html=1;aspect=fixed;strokeWidth=1;strokeColor=#000000;fillColor=#dae8fc;fontStyle=1" vertex="1" parent="FVLfrgH4JOe6l1_wb_6b-18">
          <mxGeometry x="435" y="269.5" width="65.5" height="65.5" as="geometry" />
        </mxCell>
        <mxCell id="FVLfrgH4JOe6l1_wb_6b-170" value="Export time 1H" style="ellipse;whiteSpace=wrap;html=1;aspect=fixed;strokeWidth=1;strokeColor=#000000;fillColor=#ffe6cc;fontStyle=1" vertex="1" parent="FVLfrgH4JOe6l1_wb_6b-18">
          <mxGeometry x="161" y="269.5" width="66.5" height="66.5" as="geometry" />
        </mxCell>
        <mxCell id="FVLfrgH4JOe6l1_wb_6b-40" value="B. Blockout Layout" style="swimlane;whiteSpace=wrap;html=1;fillColor=default;" vertex="1" parent="1">
          <mxGeometry x="383" y="282" width="528.5" height="330" as="geometry" />
        </mxCell>
        <mxCell id="FVLfrgH4JOe6l1_wb_6b-41" value="" style="group" vertex="1" connectable="0" parent="FVLfrgH4JOe6l1_wb_6b-40">
          <mxGeometry x="90" y="35" width="80" height="50" as="geometry" />
        </mxCell>
        <mxCell id="FVLfrgH4JOe6l1_wb_6b-42" value="" style="html=1;whiteSpace=wrap;shape=isoCube2;backgroundOutline=1;isoAngle=15;fillColor=#fff2cc;strokeColor=#d6b656;" vertex="1" parent="FVLfrgH4JOe6l1_wb_6b-41">
          <mxGeometry width="80" height="50" as="geometry" />
        </mxCell>
        <mxCell id="FVLfrgH4JOe6l1_wb_6b-43" value="Blender" style="text;html=1;align=center;verticalAlign=middle;resizable=0;points=[];autosize=1;strokeColor=none;fillColor=none;" vertex="1" parent="FVLfrgH4JOe6l1_wb_6b-41">
          <mxGeometry x="10" y="5" width="60" height="30" as="geometry" />
        </mxCell>
        <mxCell id="FVLfrgH4JOe6l1_wb_6b-44" value="" style="group" vertex="1" connectable="0" parent="FVLfrgH4JOe6l1_wb_6b-40">
          <mxGeometry x="355" y="35" width="80" height="50" as="geometry" />
        </mxCell>
        <mxCell id="FVLfrgH4JOe6l1_wb_6b-45" value="" style="html=1;whiteSpace=wrap;shape=isoCube2;backgroundOutline=1;isoAngle=15;labelBorderColor=none;fillColor=#dae8fc;strokeColor=#6c8ebf;" vertex="1" parent="FVLfrgH4JOe6l1_wb_6b-44">
          <mxGeometry width="80" height="50" as="geometry" />
        </mxCell>
        <mxCell id="FVLfrgH4JOe6l1_wb_6b-46" value="Unity" style="text;html=1;align=center;verticalAlign=middle;resizable=0;points=[];autosize=1;strokeColor=none;fillColor=none;" vertex="1" parent="FVLfrgH4JOe6l1_wb_6b-44">
          <mxGeometry x="15" y="5" width="50" height="30" as="geometry" />
        </mxCell>
        <mxCell id="FVLfrgH4JOe6l1_wb_6b-47" value="" style="endArrow=none;dashed=1;html=1;rounded=0;exitX=0.5;exitY=1;exitDx=0;exitDy=0;" edge="1" parent="FVLfrgH4JOe6l1_wb_6b-40" source="FVLfrgH4JOe6l1_wb_6b-40">
          <mxGeometry width="50" height="50" relative="1" as="geometry">
            <mxPoint x="264.58" y="185" as="sourcePoint" />
            <mxPoint x="260" y="25" as="targetPoint" />
          </mxGeometry>
        </mxCell>
        <mxCell id="FVLfrgH4JOe6l1_wb_6b-48" value="&lt;p style=&quot;margin-top: 0px;&quot;&gt;1. Build out floors and terrain (no trees)&lt;/p&gt;&lt;p style=&quot;margin-top: 0px;&quot;&gt;2. Block out walls and stairs&lt;/p&gt;&lt;p style=&quot;margin-top: 0px;&quot;&gt;3. Block out booth positions&lt;/p&gt;&lt;p style=&quot;margin-top: 0px;&quot;&gt;4. Export everything into one object for testing&lt;/p&gt;" style="text;html=1;whiteSpace=wrap;overflow=hidden;rounded=0;" vertex="1" parent="FVLfrgH4JOe6l1_wb_6b-40">
          <mxGeometry x="10" y="100" width="240" height="130" as="geometry" />
        </mxCell>
        <mxCell id="FVLfrgH4JOe6l1_wb_6b-49" value="&lt;p style=&quot;margin-top: 0px;&quot;&gt;5. Redo the terrain using Unity Terrain tool&lt;/p&gt;&lt;p style=&quot;margin-top: 0px;&quot;&gt;6. Import blockout&lt;/p&gt;" style="text;html=1;whiteSpace=wrap;overflow=hidden;rounded=0;" vertex="1" parent="FVLfrgH4JOe6l1_wb_6b-40">
          <mxGeometry x="275" y="100" width="240" height="65" as="geometry" />
        </mxCell>
        <mxCell id="FVLfrgH4JOe6l1_wb_6b-58" value="&lt;p style=&quot;margin-top: 0px;&quot;&gt;7. Check scale and movement&lt;br&gt;&lt;/p&gt;&lt;p style=&quot;margin-top: 0px;&quot;&gt;8. Repeat 1.-5. until satisfied&lt;/p&gt;" style="text;html=1;whiteSpace=wrap;overflow=hidden;rounded=0;" vertex="1" parent="FVLfrgH4JOe6l1_wb_6b-40">
          <mxGeometry x="275" y="260" width="240" height="65" as="geometry" />
        </mxCell>
        <mxCell id="FVLfrgH4JOe6l1_wb_6b-65" value="" style="group" vertex="1" connectable="0" parent="FVLfrgH4JOe6l1_wb_6b-40">
          <mxGeometry x="223.5" y="41.25" width="73" height="37.5" as="geometry" />
        </mxCell>
        <mxCell id="FVLfrgH4JOe6l1_wb_6b-50" value="" style="shape=singleArrow;whiteSpace=wrap;html=1;arrowWidth=0.4;arrowSize=0.4;" vertex="1" parent="FVLfrgH4JOe6l1_wb_6b-65">
          <mxGeometry width="63" height="25" as="geometry" />
        </mxCell>
        <mxCell id="FVLfrgH4JOe6l1_wb_6b-61" value="" style="shape=singleArrow;whiteSpace=wrap;html=1;arrowWidth=0.4;arrowSize=0.4;rotation=-180;" vertex="1" parent="FVLfrgH4JOe6l1_wb_6b-65">
          <mxGeometry x="10" y="12.5" width="63" height="25" as="geometry" />
        </mxCell>
        <mxCell id="FVLfrgH4JOe6l1_wb_6b-69" value="" style="group" vertex="1" connectable="0" parent="FVLfrgH4JOe6l1_wb_6b-40">
          <mxGeometry x="364.00488584474886" y="157.99579908675798" width="58.51858447488581" height="35.81840182648406" as="geometry" />
        </mxCell>
        <mxCell id="FVLfrgH4JOe6l1_wb_6b-67" value="" style="shape=singleArrow;whiteSpace=wrap;html=1;arrowWidth=0.4;arrowSize=0.4;rotation=-90;" vertex="1" parent="FVLfrgH4JOe6l1_wb_6b-69">
          <mxGeometry x="1.6757990867579906" y="-1.6757990867579622" width="35.81506849315069" height="39.166666666666664" as="geometry" />
        </mxCell>
        <mxCell id="FVLfrgH4JOe6l1_wb_6b-68" value="" style="shape=singleArrow;whiteSpace=wrap;html=1;arrowWidth=0.4;arrowSize=0.4;rotation=-270;" vertex="1" parent="FVLfrgH4JOe6l1_wb_6b-69">
          <mxGeometry x="21.027716894977118" y="-1.6724657534246603" width="35.81506849315069" height="39.166666666666664" as="geometry" />
        </mxCell>
        <mxCell id="FVLfrgH4JOe6l1_wb_6b-56" value="" style="html=1;whiteSpace=wrap;shape=isoCube2;backgroundOutline=1;isoAngle=15;fillColor=#f8cecc;strokeColor=#b85450;" vertex="1" parent="FVLfrgH4JOe6l1_wb_6b-40">
          <mxGeometry x="355" y="202" width="80" height="50" as="geometry" />
        </mxCell>
        <mxCell id="FVLfrgH4JOe6l1_wb_6b-57" value="VRChat&lt;div&gt;(PC)&lt;/div&gt;" style="text;html=1;align=center;verticalAlign=middle;resizable=0;points=[];autosize=1;strokeColor=none;fillColor=none;" vertex="1" parent="FVLfrgH4JOe6l1_wb_6b-40">
          <mxGeometry x="365" y="206" width="60" height="41" as="geometry" />
        </mxCell>
        <mxCell id="FVLfrgH4JOe6l1_wb_6b-171" value="3H&lt;div&gt;Rough Blockout&lt;/div&gt;" style="ellipse;whiteSpace=wrap;html=1;aspect=fixed;strokeWidth=1;strokeColor=#000000;fillColor=#ffe6cc;fontStyle=1" vertex="1" parent="FVLfrgH4JOe6l1_wb_6b-40">
          <mxGeometry x="90" y="232" width="71" height="71" as="geometry" />
        </mxCell>
        <mxCell id="FVLfrgH4JOe6l1_wb_6b-172" value="2H&lt;div&gt;Terrain Setup&lt;/div&gt;" style="ellipse;whiteSpace=wrap;html=1;aspect=fixed;strokeWidth=1;strokeColor=#000000;fillColor=#dae8fc;fontStyle=1" vertex="1" parent="FVLfrgH4JOe6l1_wb_6b-40">
          <mxGeometry x="414" y="18" width="74.75" height="74.75" as="geometry" />
        </mxCell>
        <mxCell id="FVLfrgH4JOe6l1_wb_6b-173" value="0.5H upload &amp;amp; test x3 =1.5H" style="ellipse;whiteSpace=wrap;html=1;aspect=fixed;strokeWidth=1;strokeColor=#000000;fillColor=#f8cecc;fontStyle=1" vertex="1" parent="FVLfrgH4JOe6l1_wb_6b-40">
          <mxGeometry x="428" y="165" width="90.5" height="90.5" as="geometry" />
        </mxCell>
        <mxCell id="FVLfrgH4JOe6l1_wb_6b-51" value="See Notion page&lt;div&gt;&lt;b&gt;Blender Build vs Modular Assets&lt;/b&gt;&lt;/div&gt;" style="shape=note;whiteSpace=wrap;html=1;backgroundOutline=1;darkOpacity=0.05;size=15;" vertex="1" parent="1">
          <mxGeometry x="876" y="320" width="130" height="60" as="geometry" />
        </mxCell>
        <mxCell id="FVLfrgH4JOe6l1_wb_6b-70" value="C. Build the World" style="swimlane;whiteSpace=wrap;html=1;fillColor=default;startSize=23;" vertex="1" parent="1">
          <mxGeometry x="389" y="835" width="520" height="426" as="geometry" />
        </mxCell>
        <mxCell id="FVLfrgH4JOe6l1_wb_6b-74" value="" style="group" vertex="1" connectable="0" parent="FVLfrgH4JOe6l1_wb_6b-70">
          <mxGeometry x="92" y="35" width="117" height="50" as="geometry" />
        </mxCell>
        <mxCell id="FVLfrgH4JOe6l1_wb_6b-75" value="" style="html=1;whiteSpace=wrap;shape=isoCube2;backgroundOutline=1;isoAngle=15;fillColor=#dae8fc;strokeColor=#6c8ebf;" vertex="1" parent="FVLfrgH4JOe6l1_wb_6b-74">
          <mxGeometry width="80" height="50" as="geometry" />
        </mxCell>
        <mxCell id="FVLfrgH4JOe6l1_wb_6b-76" value="Unity" style="text;html=1;align=center;verticalAlign=middle;resizable=0;points=[];autosize=1;strokeColor=none;fillColor=none;" vertex="1" parent="FVLfrgH4JOe6l1_wb_6b-74">
          <mxGeometry x="15" y="5" width="50" height="30" as="geometry" />
        </mxCell>
        <mxCell id="FVLfrgH4JOe6l1_wb_6b-80" value="" style="group" vertex="1" connectable="0" parent="FVLfrgH4JOe6l1_wb_6b-74">
          <mxGeometry x="260" width="80" height="50" as="geometry" />
        </mxCell>
        <mxCell id="FVLfrgH4JOe6l1_wb_6b-81" value="" style="html=1;whiteSpace=wrap;shape=isoCube2;backgroundOutline=1;isoAngle=15;fillColor=#f8cecc;strokeColor=#b85450;" vertex="1" parent="FVLfrgH4JOe6l1_wb_6b-80">
          <mxGeometry width="80" height="50" as="geometry" />
        </mxCell>
        <mxCell id="FVLfrgH4JOe6l1_wb_6b-82" value="VRChat&lt;div&gt;(PC)&lt;/div&gt;" style="text;html=1;align=center;verticalAlign=middle;resizable=0;points=[];autosize=1;strokeColor=none;fillColor=none;" vertex="1" parent="FVLfrgH4JOe6l1_wb_6b-80">
          <mxGeometry x="10" y="6" width="60" height="41" as="geometry" />
        </mxCell>
        <mxCell id="FVLfrgH4JOe6l1_wb_6b-77" value="" style="endArrow=none;dashed=1;html=1;rounded=0;exitX=0.5;exitY=1;exitDx=0;exitDy=0;" edge="1" parent="FVLfrgH4JOe6l1_wb_6b-70" source="FVLfrgH4JOe6l1_wb_6b-70">
          <mxGeometry width="50" height="50" relative="1" as="geometry">
            <mxPoint x="264.58" y="185" as="sourcePoint" />
            <mxPoint x="260" y="23" as="targetPoint" />
          </mxGeometry>
        </mxCell>
        <mxCell id="FVLfrgH4JOe6l1_wb_6b-84" value="" style="group" vertex="1" connectable="0" parent="FVLfrgH4JOe6l1_wb_6b-70">
          <mxGeometry x="223.5" y="41.25" width="73" height="37.5" as="geometry" />
        </mxCell>
        <mxCell id="FVLfrgH4JOe6l1_wb_6b-85" value="" style="shape=singleArrow;whiteSpace=wrap;html=1;arrowWidth=0.4;arrowSize=0.4;" vertex="1" parent="FVLfrgH4JOe6l1_wb_6b-84">
          <mxGeometry width="63" height="25" as="geometry" />
        </mxCell>
        <mxCell id="FVLfrgH4JOe6l1_wb_6b-86" value="" style="shape=singleArrow;whiteSpace=wrap;html=1;arrowWidth=0.4;arrowSize=0.4;rotation=-180;" vertex="1" parent="FVLfrgH4JOe6l1_wb_6b-84">
          <mxGeometry x="10" y="12.5" width="63" height="25" as="geometry" />
        </mxCell>
        <mxCell id="FVLfrgH4JOe6l1_wb_6b-90" value="&lt;p style=&quot;margin-top: 0px;&quot;&gt;1. Drag &amp;amp; drop modular assets made from &lt;b&gt;Step 1 &lt;/b&gt;following the blockout guidelines of &lt;b&gt;Step 2&lt;/b&gt;.&lt;/p&gt;&lt;p style=&quot;margin-top: 0px;&quot;&gt;2. Set up Skybox, Directional Light, Post Processing&lt;/p&gt;&lt;p style=&quot;margin-top: 0px;&quot;&gt;3. When necessary, build ad-hoc objects such as stairs and temporary walls using &lt;b style=&quot;background-color: rgb(102, 255, 255);&quot;&gt;ProBuilder&lt;/b&gt;&lt;/p&gt;&lt;p style=&quot;margin-top: 0px;&quot;&gt;4. Add key visual cues such as waterfall, particles, emissive objects&lt;/p&gt;&lt;p style=&quot;margin-top: 0px;&quot;&gt;5. Configure terrain to match the final blockout&lt;/p&gt;" style="text;html=1;whiteSpace=wrap;overflow=hidden;rounded=0;" vertex="1" parent="FVLfrgH4JOe6l1_wb_6b-70">
          <mxGeometry x="15" y="92" width="240" height="222" as="geometry" />
        </mxCell>
        <mxCell id="FVLfrgH4JOe6l1_wb_6b-91" value="&lt;p style=&quot;margin-top: 0px;&quot;&gt;6. Test the blockout and the overall environment&lt;/p&gt;&lt;p style=&quot;margin-top: 0px;&quot;&gt;&lt;i&gt;Mind that the environment is NOT BAKED&lt;/i&gt;&lt;/p&gt;&lt;p style=&quot;margin-top: 0px;&quot;&gt;&lt;i&gt;&lt;br&gt;&lt;/i&gt;&lt;/p&gt;" style="text;html=1;whiteSpace=wrap;overflow=hidden;rounded=0;" vertex="1" parent="FVLfrgH4JOe6l1_wb_6b-70">
          <mxGeometry x="272.5" y="92" width="240" height="229" as="geometry" />
        </mxCell>
        <mxCell id="FVLfrgH4JOe6l1_wb_6b-174" value="5H&lt;div&gt;Build Blockout&lt;/div&gt;" style="ellipse;whiteSpace=wrap;html=1;aspect=fixed;strokeWidth=1;strokeColor=#000000;fillColor=#dae8fc;fontStyle=1" vertex="1" parent="FVLfrgH4JOe6l1_wb_6b-70">
          <mxGeometry y="330" width="70.5" height="70.5" as="geometry" />
        </mxCell>
        <mxCell id="FVLfrgH4JOe6l1_wb_6b-175" value="3H&lt;div&gt;Probuilder&lt;/div&gt;" style="ellipse;whiteSpace=wrap;html=1;aspect=fixed;strokeWidth=1;strokeColor=#000000;fillColor=#dae8fc;fontStyle=1" vertex="1" parent="FVLfrgH4JOe6l1_wb_6b-70">
          <mxGeometry x="65" y="330" width="70.5" height="70.5" as="geometry" />
        </mxCell>
        <mxCell id="FVLfrgH4JOe6l1_wb_6b-176" value="3H&lt;div&gt;Particles and Bloom&lt;/div&gt;" style="ellipse;whiteSpace=wrap;html=1;aspect=fixed;strokeWidth=1;strokeColor=#000000;fillColor=#dae8fc;fontStyle=1" vertex="1" parent="FVLfrgH4JOe6l1_wb_6b-70">
          <mxGeometry x="131" y="330" width="70.5" height="70.5" as="geometry" />
        </mxCell>
        <mxCell id="FVLfrgH4JOe6l1_wb_6b-177" value="0.5H&lt;div&gt;Configure Terrain&lt;/div&gt;" style="ellipse;whiteSpace=wrap;html=1;aspect=fixed;strokeWidth=1;strokeColor=#000000;fillColor=#dae8fc;fontStyle=1" vertex="1" parent="FVLfrgH4JOe6l1_wb_6b-70">
          <mxGeometry x="192" y="330" width="70.5" height="70.5" as="geometry" />
        </mxCell>
        <mxCell id="FVLfrgH4JOe6l1_wb_6b-178" value="0.5H upload &amp;amp; test x3 =1.5H" style="ellipse;whiteSpace=wrap;html=1;aspect=fixed;strokeWidth=1;strokeColor=#000000;fillColor=#f8cecc;fontStyle=1" vertex="1" parent="FVLfrgH4JOe6l1_wb_6b-70">
          <mxGeometry x="347.25" y="171" width="90.5" height="90.5" as="geometry" />
        </mxCell>
        <mxCell id="FVLfrgH4JOe6l1_wb_6b-180" style="edgeStyle=orthogonalEdgeStyle;rounded=0;orthogonalLoop=1;jettySize=auto;html=1;entryX=1;entryY=0.5;entryDx=0;entryDy=0;" edge="1" parent="1" source="FVLfrgH4JOe6l1_wb_6b-93" target="FVLfrgH4JOe6l1_wb_6b-179">
          <mxGeometry relative="1" as="geometry">
            <mxPoint x="148.14494522758173" y="764" as="targetPoint" />
          </mxGeometry>
        </mxCell>
        <mxCell id="FVLfrgH4JOe6l1_wb_6b-93" value="&lt;span&gt;Step 3&lt;/span&gt;&lt;div&gt;Build the World&lt;/div&gt;" style="whiteSpace=wrap;html=1;fontStyle=1" vertex="1" parent="1">
          <mxGeometry x="554" y="729" width="190" height="70" as="geometry" />
        </mxCell>
        <mxCell id="FVLfrgH4JOe6l1_wb_6b-5" value="Idea generation" style="ellipse;shape=cloud;whiteSpace=wrap;html=1;fontStyle=1" vertex="1" parent="1">
          <mxGeometry x="-262" y="146" width="130" height="100" as="geometry" />
        </mxCell>
        <mxCell id="FVLfrgH4JOe6l1_wb_6b-101" value="D. Optimize Booths" style="swimlane;whiteSpace=wrap;html=1;fillColor=default;startSize=23;" vertex="1" parent="1">
          <mxGeometry x="-469" y="1125" width="794" height="791" as="geometry" />
        </mxCell>
        <mxCell id="FVLfrgH4JOe6l1_wb_6b-108" value="" style="endArrow=none;dashed=1;html=1;rounded=0;" edge="1" parent="FVLfrgH4JOe6l1_wb_6b-101">
          <mxGeometry width="50" height="50" relative="1" as="geometry">
            <mxPoint x="272.5" y="791" as="sourcePoint" />
            <mxPoint x="277" y="25" as="targetPoint" />
          </mxGeometry>
        </mxCell>
        <mxCell id="FVLfrgH4JOe6l1_wb_6b-112" value="&lt;p style=&quot;margin-top: 0px;&quot;&gt;1. Check the submission form and download the booth files to the correct name (e.g. Kyderra booth (original))&lt;/p&gt;" style="text;html=1;whiteSpace=wrap;overflow=hidden;rounded=0;" vertex="1" parent="FVLfrgH4JOe6l1_wb_6b-101">
          <mxGeometry x="15" y="155" width="240" height="63" as="geometry" />
        </mxCell>
        <mxCell id="FVLfrgH4JOe6l1_wb_6b-118" value="&lt;p style=&quot;margin-top: 0px;&quot;&gt;Playtest in Unity.&lt;/p&gt;&lt;p style=&quot;margin-top: 0px;&quot;&gt;1) Check if the textures are not broken&lt;/p&gt;&lt;p style=&quot;margin-top: 0px;&quot;&gt;2) Check if there are any console errors&lt;/p&gt;&lt;p style=&quot;margin-top: 0px;&quot;&gt;&lt;span style=&quot;background-color: transparent; color: light-dark(rgb(0, 0, 0), rgb(255, 255, 255));&quot;&gt;3) Check if there are any unused objects in the hierarchy. If yes, delete them.&lt;/span&gt;&lt;/p&gt;&lt;p style=&quot;margin-top: 0px;&quot;&gt;&lt;span style=&quot;background-color: transparent; color: light-dark(rgb(0, 0, 0), rgb(255, 255, 255));&quot;&gt;4) Check if there are no realtime lights in the scene&lt;/span&gt;&lt;/p&gt;&lt;p style=&quot;margin-top: 0px;&quot;&gt;&lt;span style=&quot;background-color: transparent; color: light-dark(rgb(0, 0, 0), rgb(255, 255, 255));&quot;&gt;5) Check if the trigger zone is working correctly&lt;/span&gt;&lt;/p&gt;&lt;p style=&quot;margin-top: 0px;&quot;&gt;&lt;span style=&quot;background-color: transparent; color: light-dark(rgb(0, 0, 0), rgb(255, 255, 255));&quot;&gt;---------------------------------------------------------&amp;nbsp;&lt;/span&gt;&lt;/p&gt;&lt;p style=&quot;margin-top: 0px;&quot;&gt;Once completing all the steps above, unpack (not unpack completely. Just unpack) and save as a new prefab called XXX &quot;cleaned&quot;&lt;/p&gt;&lt;p style=&quot;margin-top: 0px;&quot;&gt;Go to the project folder and export the unity package. Do not include shaders.&lt;/p&gt;&lt;p style=&quot;margin-top: 0px;&quot;&gt;&lt;i&gt;Note: Some things are not tested until they are imported in the main map. Such as videos, networked numbers, avatar samples, join group button&lt;/i&gt;&lt;/p&gt;" style="text;html=1;whiteSpace=wrap;overflow=hidden;rounded=0;" vertex="1" parent="FVLfrgH4JOe6l1_wb_6b-101">
          <mxGeometry x="549" y="152" width="237" height="585" as="geometry" />
        </mxCell>
        <mxCell id="FVLfrgH4JOe6l1_wb_6b-130" value="" style="group" vertex="1" connectable="0" parent="FVLfrgH4JOe6l1_wb_6b-101">
          <mxGeometry x="95" y="98" width="85.5" height="86.5" as="geometry" />
        </mxCell>
        <mxCell id="FVLfrgH4JOe6l1_wb_6b-131" value="" style="html=1;whiteSpace=wrap;shape=isoCube2;backgroundOutline=1;isoAngle=15;fillColor=#f5f5f5;strokeColor=#666666;fontColor=#333333;" vertex="1" parent="FVLfrgH4JOe6l1_wb_6b-130">
          <mxGeometry width="80" height="50" as="geometry" />
        </mxCell>
        <mxCell id="FVLfrgH4JOe6l1_wb_6b-132" value="Form" style="text;html=1;align=center;verticalAlign=middle;resizable=0;points=[];autosize=1;strokeColor=none;fillColor=none;" vertex="1" parent="FVLfrgH4JOe6l1_wb_6b-130">
          <mxGeometry x="17" y="7" width="46" height="26" as="geometry" />
        </mxCell>
        <mxCell id="FVLfrgH4JOe6l1_wb_6b-181" value="" style="group" vertex="1" connectable="0" parent="FVLfrgH4JOe6l1_wb_6b-101">
          <mxGeometry x="95" y="218" width="80" height="52" as="geometry" />
        </mxCell>
        <mxCell id="FVLfrgH4JOe6l1_wb_6b-182" value="" style="html=1;whiteSpace=wrap;shape=isoCube2;backgroundOutline=1;isoAngle=15;fillColor=#dae8fc;strokeColor=#6c8ebf;" vertex="1" parent="FVLfrgH4JOe6l1_wb_6b-181">
          <mxGeometry width="80" height="50" as="geometry" />
        </mxCell>
        <mxCell id="FVLfrgH4JOe6l1_wb_6b-183" value="Unity" style="text;html=1;align=center;verticalAlign=middle;resizable=0;points=[];autosize=1;strokeColor=none;fillColor=none;" vertex="1" parent="FVLfrgH4JOe6l1_wb_6b-181">
          <mxGeometry x="17.5" y="5" width="45" height="26" as="geometry" />
        </mxCell>
        <mxCell id="FVLfrgH4JOe6l1_wb_6b-184" value="&lt;p style=&quot;margin-top: 0px;&quot;&gt;2. Open the booth in a Booth Check Unity Project&lt;/p&gt;&lt;p style=&quot;margin-top: 0px;&quot;&gt;3. If the booth shows an error, check back on the form or reach out to the creator to ask about it&lt;/p&gt;&lt;p style=&quot;margin-top: 0px;&quot;&gt;4. If no error, play test in Unity.&lt;/p&gt;&lt;p style=&quot;margin-top: 0px;&quot;&gt;5. If anything looks weird or not right, check back with the creator.&lt;/p&gt;" style="text;html=1;whiteSpace=wrap;overflow=hidden;rounded=0;" vertex="1" parent="FVLfrgH4JOe6l1_wb_6b-101">
          <mxGeometry x="15" y="275" width="240" height="182" as="geometry" />
        </mxCell>
        <mxCell id="FVLfrgH4JOe6l1_wb_6b-222" value="&lt;b&gt;Original Submission Check&lt;/b&gt;" style="text;html=1;align=center;verticalAlign=middle;whiteSpace=wrap;rounded=0;" vertex="1" parent="FVLfrgH4JOe6l1_wb_6b-101">
          <mxGeometry x="42.5" y="52" width="185" height="30" as="geometry" />
        </mxCell>
        <mxCell id="FVLfrgH4JOe6l1_wb_6b-223" value="0.25H x 20 Booths = 5H" style="ellipse;whiteSpace=wrap;html=1;aspect=fixed;strokeWidth=1;strokeColor=#000000;fillColor=#dae8fc;fontStyle=1" vertex="1" parent="FVLfrgH4JOe6l1_wb_6b-101">
          <mxGeometry x="180.5" y="85" width="67.5" height="67.5" as="geometry" />
        </mxCell>
        <mxCell id="FVLfrgH4JOe6l1_wb_6b-224" value="0.5H x 10 booths = 5H" style="ellipse;whiteSpace=wrap;html=1;aspect=fixed;strokeWidth=1;strokeColor=#000000;fillColor=#f5f5f5;fontStyle=1;fontColor=#333333;" vertex="1" parent="FVLfrgH4JOe6l1_wb_6b-101">
          <mxGeometry x="166" y="424" width="67.5" height="67.5" as="geometry" />
        </mxCell>
        <mxCell id="FVLfrgH4JOe6l1_wb_6b-225" value="&lt;b&gt;Clean the file&lt;/b&gt;" style="text;html=1;align=center;verticalAlign=middle;whiteSpace=wrap;rounded=0;" vertex="1" parent="FVLfrgH4JOe6l1_wb_6b-101">
          <mxGeometry x="318" y="52" width="185" height="30" as="geometry" />
        </mxCell>
        <mxCell id="FVLfrgH4JOe6l1_wb_6b-235" value="&lt;p style=&quot;margin-top: 0px;&quot;&gt;In Unity, configure the following INSIDE the prefab.&lt;/p&gt;&lt;p style=&quot;margin-top: 0px;&quot;&gt;1) &lt;b&gt;Crunch compress textures&lt;/b&gt; to the minimum (until it looks broken) - for PC for now.&lt;/p&gt;&lt;p style=&quot;margin-top: 0px;&quot;&gt;2) &lt;b&gt;Delete all&amp;nbsp;Physbones&lt;/b&gt; - dig through the Armature and delete the component. Make sure it&#39;s not used anywhere in the project.&lt;/p&gt;&lt;p style=&quot;margin-top: 0px;&quot;&gt;3) &lt;b&gt;Delete all unused assets&lt;/b&gt; - For avatars, look for unnecessary assets for toggles and delete them from the hierarchy. For booths, look for unused assets in the project folder and delete wherever necessary (to save import time). For example, VRCast had included the whole furniture pack in which only the desk was used.&lt;/p&gt;&lt;p style=&quot;margin-top: 0px;&quot;&gt;4) &lt;b&gt;Mark static for static objects&lt;/b&gt;. That will create lightmaps automatically. Unless they included lights in the submission, change the lightmap method to &quot;Light Probes&quot;. If they did include the lights, proceed to 5) &amp;amp; 6)&lt;/p&gt;&lt;p style=&quot;margin-top: 0px;&quot;&gt;5) &lt;b&gt;Attach &quot;Bakery Point Light&quot;&lt;/b&gt; to all point lights that were included and &quot;Match bakery light to real-time lighting&quot;&lt;/p&gt;&lt;p style=&quot;margin-top: 0px;&quot;&gt;6) &lt;b&gt;Adjust lightmap proportion&lt;/b&gt; to 0.1&lt;/p&gt;&lt;p style=&quot;margin-top: 0px;&quot;&gt;7) &lt;b&gt;If there was any animation used (=if any of the objects are NOT marked static)&lt;/b&gt;, Drag &quot;PlayerEnterTrigger&quot; prefab into the hierarchy and set the boundary around the booth. Drag the booth underneath it. Add the animation object into the list to only enable it within the trigger region.&lt;/p&gt;" style="text;html=1;whiteSpace=wrap;overflow=hidden;rounded=0;" vertex="1" parent="FVLfrgH4JOe6l1_wb_6b-101">
          <mxGeometry x="280" y="152.5" width="248" height="543.5" as="geometry" />
        </mxCell>
        <mxCell id="FVLfrgH4JOe6l1_wb_6b-238" value="" style="shape=flexArrow;endArrow=classic;html=1;rounded=0;width=12.941176470588236;endSize=5.8352941176470585;fillColor=default;" edge="1" parent="FVLfrgH4JOe6l1_wb_6b-101">
          <mxGeometry width="50" height="50" relative="1" as="geometry">
            <mxPoint x="245" y="66.41" as="sourcePoint" />
            <mxPoint x="300" y="66.41" as="targetPoint" />
          </mxGeometry>
        </mxCell>
        <mxCell id="FVLfrgH4JOe6l1_wb_6b-240" value="&lt;b&gt;Test the file&lt;/b&gt;" style="text;html=1;align=center;verticalAlign=middle;whiteSpace=wrap;rounded=0;" vertex="1" parent="FVLfrgH4JOe6l1_wb_6b-101">
          <mxGeometry x="575" y="52" width="185" height="30" as="geometry" />
        </mxCell>
        <mxCell id="FVLfrgH4JOe6l1_wb_6b-241" value="" style="group" vertex="1" connectable="0" parent="FVLfrgH4JOe6l1_wb_6b-101">
          <mxGeometry x="627.5" y="92.75" width="80" height="52" as="geometry" />
        </mxCell>
        <mxCell id="FVLfrgH4JOe6l1_wb_6b-242" value="" style="html=1;whiteSpace=wrap;shape=isoCube2;backgroundOutline=1;isoAngle=15;fillColor=#dae8fc;strokeColor=#6c8ebf;" vertex="1" parent="FVLfrgH4JOe6l1_wb_6b-241">
          <mxGeometry width="80" height="50" as="geometry" />
        </mxCell>
        <mxCell id="FVLfrgH4JOe6l1_wb_6b-243" value="Unity" style="text;html=1;align=center;verticalAlign=middle;resizable=0;points=[];autosize=1;strokeColor=none;fillColor=none;" vertex="1" parent="FVLfrgH4JOe6l1_wb_6b-241">
          <mxGeometry x="17.5" y="9" width="45" height="26" as="geometry" />
        </mxCell>
        <mxCell id="FVLfrgH4JOe6l1_wb_6b-245" value="1H x 20 Booths = 20H" style="ellipse;whiteSpace=wrap;html=1;aspect=fixed;strokeWidth=1;strokeColor=#000000;fillColor=#dae8fc;fontStyle=1" vertex="1" parent="FVLfrgH4JOe6l1_wb_6b-101">
          <mxGeometry x="463" y="77.25" width="67.5" height="67.5" as="geometry" />
        </mxCell>
        <mxCell id="FVLfrgH4JOe6l1_wb_6b-246" value="0.5H x 20 Booths = 10H" style="ellipse;whiteSpace=wrap;html=1;aspect=fixed;strokeWidth=1;strokeColor=#000000;fillColor=#dae8fc;fontStyle=1" vertex="1" parent="FVLfrgH4JOe6l1_wb_6b-101">
          <mxGeometry x="712" y="75" width="67.5" height="67.5" as="geometry" />
        </mxCell>
        <mxCell id="FVLfrgH4JOe6l1_wb_6b-244" value="" style="shape=flexArrow;endArrow=classic;html=1;rounded=0;width=12.941176470588236;endSize=5.8352941176470585;fillColor=#FFFFFF;strokeColor=default;" edge="1" parent="FVLfrgH4JOe6l1_wb_6b-101">
          <mxGeometry width="50" height="50" relative="1" as="geometry">
            <mxPoint x="512" y="66.33000000000015" as="sourcePoint" />
            <mxPoint x="567" y="66.33000000000015" as="targetPoint" />
          </mxGeometry>
        </mxCell>
        <mxCell id="FVLfrgH4JOe6l1_wb_6b-142" value="Asset Pack Selection" style="swimlane;whiteSpace=wrap;html=1;" vertex="1" parent="1">
          <mxGeometry x="-481" y="283" width="260" height="359" as="geometry" />
        </mxCell>
        <mxCell id="FVLfrgH4JOe6l1_wb_6b-144" value="" style="html=1;whiteSpace=wrap;shape=isoCube2;backgroundOutline=1;isoAngle=15;fillColor=#f5f5f5;strokeColor=#666666;fontColor=#333333;" vertex="1" parent="FVLfrgH4JOe6l1_wb_6b-142">
          <mxGeometry x="88" y="34" width="80" height="50" as="geometry" />
        </mxCell>
        <mxCell id="FVLfrgH4JOe6l1_wb_6b-145" value="Web" style="text;html=1;align=center;verticalAlign=middle;resizable=0;points=[];autosize=1;strokeColor=none;fillColor=none;" vertex="1" parent="FVLfrgH4JOe6l1_wb_6b-142">
          <mxGeometry x="107" y="41" width="42" height="26" as="geometry" />
        </mxCell>
        <mxCell id="FVLfrgH4JOe6l1_wb_6b-147" value="&lt;p style=&quot;margin-top: 0px;&quot;&gt;1. Search on Unity Asset Store, Artstation, etc. for ideas and potential Asset Pack to use. Consider the user flow, key visuals and theme.&lt;/p&gt;" style="text;html=1;whiteSpace=wrap;overflow=hidden;rounded=0;" vertex="1" parent="FVLfrgH4JOe6l1_wb_6b-142">
          <mxGeometry x="17" y="100" width="222" height="57" as="geometry" />
        </mxCell>
        <mxCell id="FVLfrgH4JOe6l1_wb_6b-154" value="" style="html=1;whiteSpace=wrap;shape=isoCube2;backgroundOutline=1;isoAngle=15;fillColor=#dae8fc;strokeColor=#6c8ebf;" vertex="1" parent="FVLfrgH4JOe6l1_wb_6b-142">
          <mxGeometry x="88" y="177" width="80" height="50" as="geometry" />
        </mxCell>
        <mxCell id="FVLfrgH4JOe6l1_wb_6b-155" value="Unity" style="text;html=1;align=center;verticalAlign=middle;resizable=0;points=[];autosize=1;strokeColor=none;fillColor=none;" vertex="1" parent="FVLfrgH4JOe6l1_wb_6b-142">
          <mxGeometry x="103" y="183" width="50" height="30" as="geometry" />
        </mxCell>
        <mxCell id="FVLfrgH4JOe6l1_wb_6b-156" value="&lt;p style=&quot;margin-top: 0px;&quot;&gt;2. Import asset in a blank Unity project and roughly arrange the items to ideal location&lt;/p&gt;" style="text;html=1;whiteSpace=wrap;overflow=hidden;rounded=0;" vertex="1" parent="FVLfrgH4JOe6l1_wb_6b-142">
          <mxGeometry x="17.5" y="227" width="222" height="57" as="geometry" />
        </mxCell>
        <mxCell id="FVLfrgH4JOe6l1_wb_6b-162" value="1x2 assets = 2H" style="ellipse;whiteSpace=wrap;html=1;aspect=fixed;strokeWidth=1;strokeColor=#000000;fillColor=light-dark(#dae8fc, #1f304b);fontStyle=1" vertex="1" parent="FVLfrgH4JOe6l1_wb_6b-142">
          <mxGeometry x="61.5" y="284" width="62.25" height="62.25" as="geometry" />
        </mxCell>
        <mxCell id="FVLfrgH4JOe6l1_wb_6b-164" value="4HR&lt;div&gt;Idea Sketch&lt;/div&gt;" style="ellipse;whiteSpace=wrap;html=1;aspect=fixed;strokeWidth=1;strokeColor=#000000;fillColor=#FFFF99;fontStyle=1" vertex="1" parent="FVLfrgH4JOe6l1_wb_6b-142">
          <mxGeometry x="184" y="41" width="67" height="67" as="geometry" />
        </mxCell>
        <mxCell id="FVLfrgH4JOe6l1_wb_6b-166" value="3H&lt;div&gt;Rough Blockout&lt;/div&gt;" style="ellipse;whiteSpace=wrap;html=1;aspect=fixed;strokeWidth=1;strokeColor=#000000;fillColor=#FFFF99;fontStyle=1" vertex="1" parent="FVLfrgH4JOe6l1_wb_6b-142">
          <mxGeometry x="130" y="282.25" width="64" height="64" as="geometry" />
        </mxCell>
        <mxCell id="FVLfrgH4JOe6l1_wb_6b-248" style="edgeStyle=orthogonalEdgeStyle;rounded=0;orthogonalLoop=1;jettySize=auto;html=1;exitX=0;exitY=0.5;exitDx=0;exitDy=0;entryX=0;entryY=0.75;entryDx=0;entryDy=0;" edge="1" parent="1" source="FVLfrgH4JOe6l1_wb_6b-179" target="FVLfrgH4JOe6l1_wb_6b-247">
          <mxGeometry relative="1" as="geometry">
            <Array as="points">
              <mxPoint x="-653" y="764" />
              <mxPoint x="-653" y="2038" />
            </Array>
          </mxGeometry>
        </mxCell>
        <mxCell id="FVLfrgH4JOe6l1_wb_6b-179" value="&lt;span&gt;Step 4&lt;/span&gt;&lt;div&gt;Optimize Booth&lt;/div&gt;" style="whiteSpace=wrap;html=1;fontStyle=1" vertex="1" parent="1">
          <mxGeometry x="-160" y="729" width="190" height="70" as="geometry" />
        </mxCell>
        <mxCell id="FVLfrgH4JOe6l1_wb_6b-210" value="Prepare Booth Check Unity Project" style="swimlane;whiteSpace=wrap;html=1;" vertex="1" parent="1">
          <mxGeometry x="-469" y="835" width="789" height="257" as="geometry" />
        </mxCell>
        <mxCell id="FVLfrgH4JOe6l1_wb_6b-217" value="" style="html=1;whiteSpace=wrap;shape=isoCube2;backgroundOutline=1;isoAngle=15;fillColor=#dae8fc;strokeColor=#6c8ebf;" vertex="1" parent="FVLfrgH4JOe6l1_wb_6b-210">
          <mxGeometry x="361" y="35" width="80" height="50" as="geometry" />
        </mxCell>
        <mxCell id="FVLfrgH4JOe6l1_wb_6b-218" value="Unity" style="text;html=1;align=center;verticalAlign=middle;resizable=0;points=[];autosize=1;strokeColor=none;fillColor=none;" vertex="1" parent="FVLfrgH4JOe6l1_wb_6b-210">
          <mxGeometry x="376" y="40" width="50" height="30" as="geometry" />
        </mxCell>
        <mxCell id="FVLfrgH4JOe6l1_wb_6b-219" value="&lt;p style=&quot;margin-top: 0px;&quot;&gt;1. Download all necessary shader and program files that are needed to open the booth files without error.&lt;/p&gt;&lt;p style=&quot;margin-top: 0px;&quot;&gt;E.g. CyanTrigger, Mochies, Dynamic Bone, KillFrenzy, MToon, Poiyomi (for cases to check the intended outcome if they were using Poiyomi), TXL Video, Post Processing, &lt;b style=&quot;background-color: rgb(102, 255, 255);&quot;&gt;Bakery&lt;/b&gt;, &lt;b style=&quot;background-color: rgb(102, 255, 255);&quot;&gt;PlayerEnterTrigger&lt;/b&gt;&lt;/p&gt;&lt;p style=&quot;margin-top: 0px;&quot;&gt;2. Download VRCWOrld Toolkit to check individual booth size when necessary&lt;/p&gt;" style="text;html=1;whiteSpace=wrap;overflow=hidden;rounded=0;" vertex="1" parent="FVLfrgH4JOe6l1_wb_6b-210">
          <mxGeometry x="31" y="97" width="732" height="160" as="geometry" />
        </mxCell>
        <mxCell id="FVLfrgH4JOe6l1_wb_6b-220" value="1.5H Import Time" style="ellipse;whiteSpace=wrap;html=1;aspect=fixed;strokeWidth=1;strokeColor=#000000;fillColor=#dae8fc;fontStyle=1" vertex="1" parent="FVLfrgH4JOe6l1_wb_6b-210">
          <mxGeometry x="626" y="46" width="67.5" height="67.5" as="geometry" />
        </mxCell>
        <mxCell id="FVLfrgH4JOe6l1_wb_6b-237" value="" style="shape=flexArrow;endArrow=classic;html=1;rounded=0;width=23.529411764705884;endSize=6.694117647058824;fillColor=default;" edge="1" parent="FVLfrgH4JOe6l1_wb_6b-210">
          <mxGeometry width="50" height="50" relative="1" as="geometry">
            <mxPoint x="400.41" y="220" as="sourcePoint" />
            <mxPoint x="400.41" y="286" as="targetPoint" />
          </mxGeometry>
        </mxCell>
        <mxCell id="FVLfrgH4JOe6l1_wb_6b-226" value="" style="group" vertex="1" connectable="0" parent="1">
          <mxGeometry x="-282" y="1477" width="85.5" height="86.5" as="geometry" />
        </mxCell>
        <mxCell id="FVLfrgH4JOe6l1_wb_6b-227" value="" style="html=1;whiteSpace=wrap;shape=isoCube2;backgroundOutline=1;isoAngle=15;fillColor=#f5f5f5;strokeColor=#666666;fontColor=#333333;" vertex="1" parent="FVLfrgH4JOe6l1_wb_6b-226">
          <mxGeometry width="80" height="50" as="geometry" />
        </mxCell>
        <mxCell id="FVLfrgH4JOe6l1_wb_6b-228" value="Form" style="text;html=1;align=center;verticalAlign=middle;resizable=0;points=[];autosize=1;strokeColor=none;fillColor=none;" vertex="1" parent="FVLfrgH4JOe6l1_wb_6b-226">
          <mxGeometry x="18" y="14" width="46" height="26" as="geometry" />
        </mxCell>
        <mxCell id="FVLfrgH4JOe6l1_wb_6b-229" value="" style="group" vertex="1" connectable="0" parent="1">
          <mxGeometry x="-96" y="1216" width="80" height="52" as="geometry" />
        </mxCell>
        <mxCell id="FVLfrgH4JOe6l1_wb_6b-230" value="" style="html=1;whiteSpace=wrap;shape=isoCube2;backgroundOutline=1;isoAngle=15;fillColor=#dae8fc;strokeColor=#6c8ebf;" vertex="1" parent="FVLfrgH4JOe6l1_wb_6b-229">
          <mxGeometry width="80" height="50" as="geometry" />
        </mxCell>
        <mxCell id="FVLfrgH4JOe6l1_wb_6b-231" value="Unity" style="text;html=1;align=center;verticalAlign=middle;resizable=0;points=[];autosize=1;strokeColor=none;fillColor=none;" vertex="1" parent="FVLfrgH4JOe6l1_wb_6b-229">
          <mxGeometry x="17.5" y="9" width="45" height="26" as="geometry" />
        </mxCell>
        <mxCell id="FVLfrgH4JOe6l1_wb_6b-114" value="" style="endArrow=none;dashed=1;html=1;rounded=0;" edge="1" parent="1">
          <mxGeometry width="50" height="50" relative="1" as="geometry">
            <mxPoint x="67" y="1914" as="sourcePoint" />
            <mxPoint x="67" y="1149" as="targetPoint" />
          </mxGeometry>
        </mxCell>
        <mxCell id="FVLfrgH4JOe6l1_wb_6b-247" value="&lt;span&gt;Step 5&lt;/span&gt;&lt;div&gt;Import Booths&lt;/div&gt;" style="whiteSpace=wrap;html=1;fontStyle=1" vertex="1" parent="1">
          <mxGeometry x="-151" y="1985" width="190" height="70" as="geometry" />
        </mxCell>
        <mxCell id="FVLfrgH4JOe6l1_wb_6b-273" value="Vertical Container" style="swimlane;whiteSpace=wrap;html=1;" vertex="1" parent="1">
          <mxGeometry x="-469" y="2118" width="797" height="200" as="geometry" />
        </mxCell>
      </root>
    </mxGraphModel>
  </diagram>
</mxfile>
